<svg id="SvgjsSvg1450" width="360" height="360" xmlns="http://www.w3.org/2000/svg" version="1.1" xmlns:xlink="http://www.w3.org/1999/xlink" xmlns:svgjs="http://svgjs.com/svgjs"><defs id="SvgjsDefs1451"></defs><g id="SvgjsG1452"><svg xmlns="http://www.w3.org/2000/svg" data-name="Background 16" viewBox="0 0 1052.71 1282.48" width="360" height="360"><path fill="#ffffff" d="M111.55 644.1s18.84-394.36 330.74-340.58 319-162.84 480.57-170.29c155.48-7.17 419.45 713.89 58.42 1071.93-309.07 306.53-586.1 249.16-735 14.34S111.55 644.1 111.55 644.1Z" transform="translate(-109.78 -133.18)" class="colorf5f5fc svgShape"></path><g data-name="Layer 4" fill="#000000" class="color000 svgShape"><path fill="#6237a0" d="M282.08 607.7v43.58h-10.94l-12.45-43.58h-28.38V458.41l279.42 1.56v148.15h-29l-11.28 43.16h-10.89l1.17-43.55-177.65-.03z" class="colorbac5f4 svgShape"></path><path fill="#6237a0" d="M245.87 473.02h246.41v57.17H245.87z" class="colorb0c0f4 svgShape"></path><path fill="#dddaef" d="M253.41 478.67h12.65v45.52h-12.65zM272.58 478.67h12.65v45.52h-12.65z" class="colore1e6fb svgShape"></path><path fill="#dddaef" d="M412.69 610.4h12.65v45.52h-12.65z" transform="rotate(-45.38 204.898 697.88)" class="colore1e6fb svgShape"></path><path fill="#dddaef" d="M335.1 495.69h50.89v9.13H335.1zM335.1 509.24h50.89v14.95H335.1z" class="colore1e6fb svgShape"></path><path fill="#6237a0" d="M245.87 538.15h246.41v57.17H245.87z" class="colorb0c0f4 svgShape"></path><path fill="#dddaef" d="M298.56 543.97h7.84v45.52h-7.84zM287.12 557.72h7.84v31.78h-7.84zM309.23 543.97h12.65v45.52h-12.65z" class="colore1e6fb svgShape"></path><path fill="#dddaef" d="M504.72 696.83h45.52v12.65h-45.52z" transform="rotate(-61.07 359.657 729.602)" class="colore1e6fb svgShape"></path><path fill="#dddaef" d="M435.95 560.82h50.89v9.13h-50.89zM435.95 574.37h50.89v14.95h-50.89z" class="colore1e6fb svgShape"></path><path fill="#cc5500" d="M377.71 430.68h50.89v9.13h-50.89zM377.71 444.23h50.89v14.95h-50.89z" class="colorfff svgShape"></path></g><path fill="#6237a0" d="M527.75 651.28h293.31v-423.4H523.85l3.9 423.4z" class="colorbac5f4 svgShape"></path><path fill="#6237a0" d="M543.58 247.49h255.93V370.3H543.58zM544.49 515.83h255.93v122.81H544.49zM544.49 382.81h255.93v122.81H544.49z" class="colorb0c0f4 svgShape"></path><path fill="#6237a0" d="M550.54 388.17h242.53v110.3H550.54z" class="colorbac5f4 svgShape"></path><path fill="#dddaef" d="M557.67 262.23h24.08v103.26h-24.08zM589.44 262.23h24.08v103.26h-24.08zM594.84 530.91h24.08v103.26h-24.08z" class="colore1e6fb svgShape"></path><path fill="#dddaef" d="M779.92 706.42h17.71v103.26h-17.71z" transform="rotate(-89.51 666.778 746.823)" class="colore1e6fb svgShape"></path><path fill="#dddaef" d="M820.61 704.93h110.94v17.71H820.61z" transform="rotate(-66.49 719.587 730.931)" class="colore1e6fb svgShape"></path><path fill="#dddaef" d="M782.39 688.66h12.71v103.26h-12.71z" transform="rotate(-89.4 667.774 729.077)" class="colore1e6fb svgShape"></path><circle cx="606.88" cy="623.57" r="5.41" fill="#6237a0" class="colorb0c0f4 svgShape"></circle><circle cx="637.54" cy="625.16" r="4.12" fill="#6237a0" class="colorb0c0f4 svgShape"></circle><circle cx="747.54" cy="623.57" r="4.12" fill="#6237a0" class="colorb0c0f4 svgShape"></circle><path fill="#dddaef" d="M835.4 432.66h24.08v103.26H835.4z" transform="rotate(-89.16 724.993 473.395)" class="colore1e6fb svgShape"></path><path fill="#dddaef" d="M840.47 411.14h13.78V514.4h-13.78z" transform="rotate(-89.16 724.916 451.877)" class="colore1e6fb svgShape"></path><circle cx="601.48" cy="348.72" r="5.41" fill="#6237a0" class="colorb0c0f4 svgShape"></circle><circle cx="776.04" cy="352.11" r="5.41" fill="#6237a0" class="colorb0c0f4 svgShape"></circle><circle cx="776.04" cy="330.56" r="3.38" fill="#6237a0" class="colorb0c0f4 svgShape"></circle><circle cx="569.71" cy="348.72" r="5.41" fill="#6237a0" class="colorb0c0f4 svgShape"></circle><path fill="#6237a0" d="M665.56 387.17h5.99v113.36h-5.99z" class="colorb0c0f4 svgShape"></path><circle cx="648.28" cy="447.8" r="4.48" fill="#6237a0" class="colorb0c0f4 svgShape"></circle><circle cx="684.86" cy="447.8" r="4.48" fill="#6237a0" class="colorb0c0f4 svgShape"></circle><g fill="#000000" class="color000 svgShape"><path fill="#cc5500" d="m726.4 1050.85 25-99h-25l-8 99h8zM868.4 949.85l28-6 4 89h-9l-23-83z" class="colorfff svgShape"></path><path fill="#6237a0" d="M834.18 1003s-46 10-45 41 21 42 87 44 126-4 148-19 28-60 26-75-17-93 0-137 24-72 22-76-13-32-48-3-83 82-90 144c-1.8 15.93-30.89 5-50 5s-42-3-56 19c-14.92 23.46-11 47 6 57Z" transform="translate(-109.78 -133.18)" class="colorbac5f4 svgShape"></path><path fill="#6237a0" d="M807.18 1014s124.83 38.36 183 18c61.13-21.42 56.13 2.09 59.52-16.64 1.82-10.06 1.22-27.12-1.07-31.83-1.65-3.38-26.29 6-49.42 14.41-42.91 15.68-126 9.07-147-5.93s-27.3-38.74-27.3-38.74-16 26.35 5.23 45.45c6.08 5.48-5.65 6.79-13.09 9.61s-9.87 5.67-9.87 5.67Z" transform="translate(-109.78 -133.18)" class="colorb0c0f4 svgShape"></path></g><g fill="#000000" class="color000 svgShape"><path fill="#dddaef" d="m110.83 1049.25 30.93 92.78h44.5l25.65-92.78-56.57-19.62-44.51 19.62z" class="colore1e6fb svgShape"></path><path fill="#6237a0" d="M248.4 1106.61S132 1120.47 109.78 1236c0 0 193.14-32.34 173.73-82.25s-35.11-47.14-35.11-47.14Z" transform="translate(-109.78 -133.18)" class="colorbac5f4 svgShape"></path><path fill="#6237a0" d="M299.31 1132.6s-14.53-132.19-130.17-156.79c0 0 33.46 219.22 83.25 196.92s46.92-40.13 46.92-40.13Z" transform="translate(-109.78 -133.18)" class="colorbac5f4 svgShape"></path><path fill="#6237a0" d="M254.57 1112.55s33.3-89 106.61-81.19c23.7 2.52 10.58 49 10.58 49L349.83 1057s-25.58 104.17-50.49 101.43-44.77-45.88-44.77-45.88Z" transform="translate(-109.78 -133.18)" class="colorbac5f4 svgShape"></path><path fill="#6237a0" d="M267.91 1174.33s98.2 39.65 82.49 113.5c0 0 52.11-52.07 1.7-125s-67.22-27.39-67.22-27.39Z" transform="translate(-109.78 -133.18)" class="colorbac5f4 svgShape"></path><path fill="#6237a0" d="M307.19 1098.5s99-17 113.91-3.8-11 70.61-29.07 79.63c0 0 7.07-22.41 7.07-36.55s-51.84 29.07-57.34 29.07-42.42-50.28-42.42-50.28Z" transform="translate(-109.78 -133.18)" class="colorbac5f4 svgShape"></path><path fill="none" stroke="#dddaef" stroke-linecap="round" stroke-linejoin="round" stroke-width="3" d="M262.78 1146.3s49.22-77.85 71.22-97.89c12.47-11.36 25.67-1.17 34 9.83M262.78 1146.3s104.13-39.74 133.82-41.7c16.83-1.11 20.75 14.14 8.77 45.9M262.78 1146.3s47.29 15.7 71.37 33.19c8.73 6.35 27.85 26.29 26.5 62.77M189.57 1000.92s10.22 27.84 32.5 47.56c12.63 11.18 33.34 59.47 40.71 97.82" transform="translate(-109.78 -133.18)" class="colorStrokefff svgStroke"></path><path fill="none" stroke="#dddaef" stroke-linecap="round" stroke-linejoin="round" stroke-width="3" d="M140.4 1213.15s17.62-25.54 42.49-41.87c23.8-15.63 43-28.06 79.89-25" transform="translate(-109.78 -133.18)" class="colorStrokefff svgStroke"></path></g></svg></g></svg>